<?xml version="1.0" encoding="UTF-8"?>
<svg id="Layer_1" data-name="Layer 1" xmlns="http://www.w3.org/2000/svg" viewBox="0 0 114.66 103.71">
  <defs>
    <style>
      .cls-1 {
        fill: #3d3a37;
      }

      .cls-2 {
        fill: #302d2a;
      }

      .cls-3 {
        fill: #694e64;
      }

      .cls-4 {
        fill: #e1d9ce;
      }

      .cls-5 {
        fill: #3a3435;
      }

      .cls-6 {
        fill: #efe7db;
      }

      .cls-7 {
        fill: #322f2c;
      }

      .cls-8 {
        fill: #fea3fe;
      }

      .cls-9 {
        fill: #684e64;
      }

      .cls-10 {
        fill: #4b4347;
      }

      .cls-11 {
        fill: #4a3c44;
      }

      .cls-12 {
        fill: #75bdf6;
      }

      .cls-13 {
        fill: #817f7e;
      }

      .cls-14 {
        fill: #3f3a3a;
      }

      .cls-15 {
        fill: #ebe3d8;
      }

      .cls-16 {
        fill: #76bef7;
      }

      .cls-17 {
        fill: #574452;
      }

      .cls-18 {
        fill: #666;
      }

      .cls-19 {
        fill: #694e65;
      }

      .cls-20 {
        fill: #3b3536;
      }

      .cls-21 {
        fill: #028cfa;
      }

      .cls-22 {
        fill: #666566;
      }

      .cls-23 {
        fill: #363030;
      }

      .cls-24 {
        fill: #312d2b;
      }

      .cls-25 {
        fill: #eee6db;
      }

      .cls-26 {
        fill: #433b3e;
      }

      .cls-27 {
        fill: #353030;
      }

      .cls-28 {
        fill: #312e2b;
      }

      .cls-29 {
        fill: #443b3f;
      }

      .cls-30 {
        fill: #fefefe;
      }
    </style>
  </defs>
  <path class="cls-22" d="M14.1,95.5c.24.05.56-.03.83,0,.15.52-.22.47-.27.55-.69.62-4.32,4.94-3.12,5.58,2.43.44,4.84.94,7.24,1.49v.4c-3.92-.01-9.23.44-12.96,0l-1.08-.98c-2.92-2.61-1.89-4.23,3.11-4.84,1.11-.3.61-1.22-1.49-2.75-.24-.86,2.35-1.23,2.96-1.09,1.53,1.04,3.13,1.59,4.79,1.64Z"/>
  <g>
    <path class="cls-2" d="M75.9,64.81c3.08,8.18-6.69,15.9-13.46,18.17-.64.21-2.32.25-2.51.81-.78,4.58,1.4,7.43,5.21,9.5.27.28.09.37-.55.28-6.25-2-8.83-1.01-14.62,1.11-.35.08-.43.07-.28-.28,3.14-1.69,8.57-3.8,9.26-7.73.6-3.42-.32-2.47-2.78-3.32-5.24-1.81-15.46-6.86-17.56-12.26-.7-1.8-.36-2.59-.5-4.33,2-6.5,10.9-9.15,17-9.92,6.57-.83,18.08.75,20.8,7.98Z"/>
    <path class="cls-1" d="M46.19,62.4c2.15-2.41,11.79-3.35,14.96-3.13,5.52.38,12.86,3.51,11.93,10.31-.65,4.79-7.95,9.17-12.35,6.98,3.25-2.1,3.68-4.86,1.8-8.17s-8.54-5.23-12.16-5.26c-.74,0-6.11,1.44-4.19-.72Z"/>
  </g>
  <path class="cls-22" d="M100.46,94.94c1.77-.1,3.47-.72,5.1-1.84.76-.28,1.97.19,1.34,1.06-3.78,3.84-3.25,4.5,1.6,1.98.16.03.31.07.43.16.48.38-.91,6.35-1.38,6.92-.13.16-.24.3-.48.29-3.91.41-9.16-.01-13.24,0-.11-1.12.05-.68.55-.83,2.91-.34,5.81-.9,8.7-1.69,1.12-.49-2.49-4.92-3.18-5.5-.05-.09-.43-.03-.27-.55.27-.03.58.05.83,0Z"/>
  <g>
    <path class="cls-2" d="M80.87,62.6c-1.92-1.15-3.95-2-5.89-3.09-.49-.27-2.84-2.17-3.21-1.89l-.28.55c-3.04-8.44,4.47-16.1,13.04-12.65,6.12,2.46,10.15,11.6,7.24,17.64-.26.54.03.75-.69.26l-.46-.55c.77-6.7-2.87-15.69-10.62-15.53,4.86,2.34,7.34,7.68,7.3,12.87,0,1.26-.08,4.79-1.73,4.32l-.29-.77c.59-1.76.96-3.82.18-5.56l.38-.58-.61-.34c-.9-3.42-2.59-7.26-6.25-8.34,1.72.91,3.12,2.27,4.19,3.9.71,1.09,2.16,3.48,1.29,4.51,1.42,1.26,1.01,5.48-.55,6.64.42.46.25.64-.28.28-.74-.56-1.93-1.16-2.76-1.66Z"/>
    <g>
      <path class="cls-30" d="M91.08,63.43c-.38,1.69-1.67,3.4-3.04,4.42-.23-.32-.82-.78-1.1-1.11-.46-.52-1.18-1.54-1.66-1.94-.38-.37-.2-.54.28-.28,1.75-1.39,1.18-6.23.69-8.3-.83-3.53-3.18-6.91-6.57-8.35-.63-.27-1.38-.08-1.85-.63,5.58-1.96,10.38,2.34,12.27,7.33.9,2.39,1.52,6.37.97,8.84Z"/>
      <path class="cls-25" d="M75.56,50.5c4.65-.82,5.39,6.97.48,7.14-4.38.15-4.52-6.42-.48-7.14Z"/>
      <path class="cls-21" d="M85.84,57.62c-.13.86-1.2.48-1.38-.28-.87-4.17-4.44-8.83-9.11-8.57.1-.51.54-.51.95-.56,5.72-.67,8.54,4.71,9.53,9.41Z"/>
      <path class="cls-12" d="M85.84,57.62c.09.41.45.88.52,1.55.21,1.92-.06,3.6-.8,5.36-.08.07-.14.23-.28.28-.22-.18-1.1-.41-1.38-.83-.11-1.05.23-.66.42-1.39.49-1.85.53-3.36.14-5.25l1.38.28Z"/>
      <path class="cls-15" d="M79.97,56.28c1.42-.22,2.54,1.66,1.59,2.99-1.92,2.69-4.54-2.54-1.59-2.99Z"/>
    </g>
  </g>
  <path class="cls-28" d="M108.19,84.72c6.41,1.31,1.09,6.02-1.65,8.16,2.51.5-.73,2.75-1.1,3.6-.15.34.06.51.41.41.81-.24,3.48-2.45,3.97-.63.13.5-1.32,6.22-1.66,6.8s-.52.4-1.06.46l1.65-6.91c-.95.19-4.6,2.59-4.92.93-.18-.9,2.72-2.88,2.99-3.97-2.15-.33-4.12,2.43-6.35,1.38,2.97-.57,7.34-3.78,9.1-6.22,1.66-2.3.44-2.24-1.38-3.45v-.55Z"/>
  <g>
    <path class="cls-2" d="M24.31,66.19c-.21.61-.63-.41-.7-.54-2.96-5.79-2.03-12.4,2.62-17.02,6.48-6.45,17.69-3.07,17.69,6.37,0,.5-.66,3.57-.87,3.72-.03.02-.43-.26-.79-.12-2.08.82-5.58,2.82-7.66,3.96-1.07.59-2.13,1.29-3.13,1.98-.17.06-.39.18-.55.28-.47.36-.65.2-.28-.28-1.09-.55-1.29-2.45-1.34-3.69-.05-1.16-.05-3.31,1.06-3.78-.8-1,.61-3.13,1.32-4.13.83-1.18,1.77-2.1,2.98-2.9,1.87-1.23.43-.53-.54.08-2.3,1.45-3.89,4.22-4.77,6.73l-.64.22.39.7c-.52,2.16-.62,4.47.17,6.58l-.29.74c-1.69.35-1.8-3.04-1.76-4.37.13-5.31,2.37-10.48,7.43-12.79-8.54-.29-12.5,10.78-10.06,17.7l-.29.56Z"/>
    <g>
      <path class="cls-30" d="M24.31,66.19c-1.02-1.51-.71-1.71-.82-3.16-.13-1.67-.23-2.9.06-4.65,1.04-6.21,6.22-12.9,13.17-10.58-.47.55-1.23.36-1.85.63-4.11,1.76-6.64,6.35-6.99,10.69-.15,1.91-.36,4.66,1.11,5.95.37-.38.53-.21.28.28-.62.52-2.27,2.36-2.76,3.04-.71-.54-1.72-1.49-2.21-2.21Z"/>
      <path class="cls-6" d="M38.66,57.07c.22.67.13.76-.55.55-1.7.82-3.07,1.48-4.56-.27-2.64-3.1,1.32-7.92,4.7-5.54,1.81,1.27,1.53,3.61.41,5.25Z"/>
      <path class="cls-21" d="M28.72,57.07c.78-2.88,3.43-7.16,6.47-8.03,1.02-.29,3.29-.72,4.01.29-4.46-.14-7.77,3.75-8.83,7.74-.22.79-1.44.81-1.66,0Z"/>
      <path class="cls-16" d="M30.38,57.07c-.59,2.25-.73,3.81-.14,6.08.19.72.52.34.42,1.39-.27.42-1.18.66-1.38.83-.13-.05-.19-.2-.28-.28-1.16-2.54-.99-5.38-.28-8.02h1.66Z"/>
      <path class="cls-4" d="M38.66,57.07c.86-.35,2.13-.36,2.63.54.59,1.07-.29.7-.84,1.1-.59.43-.92,1.42-1.9,1.1-.71-.23-.4-1.63-.45-2.19.04-.02.15-.39.55-.55Z"/>
    </g>
  </g>
  <g>
    <path class="cls-8" d="M6.65,63.15l-.08-.92c.31-.49,4.17,1.97,4.36,2.8,2.71-5.78,6.74,2.63,5.93,5.9l-.52,4.82c.26.8,7.58-4.47,8.16-5.06l.64.21c-2.97,9.03,2.07,17.42,7.45,24.33.28.11.37.02.28-.28-6.07-6.17-12.23-18.08-6.07-25.99.57-1.56,2.54-3.52,4.14-4.15-.24-.72.02-.81.55-.28,2.1-1.55,7.39-1.2,6.62,2.21l.57.32c-.67,8.31,11.5,13.54,18.06,15.88,2.72.03,3.28,1.96,2.65,4.31-1.04,3.86-6.26,6.16-9.69,7.14l.28.28c4.14-2.65,10.37-4.11,14.62-1.11,2.93,1.04,3.11.94.55-.28-4.59-.84-6.77-5.93-5.42-10.11,7.56-1.86,17.91-8.61,15.84-17.65l.34-.72c-.22-.9,1.75-1.94,2.55-2.22.97-.34,1.4-.39,2.42.01.72-.57,3.02.73,2.76,1.66,1.23.41,2.53,1.59,3.04,2.76,7.79,7.83,1.62,20.8-4.97,27.37-1.98,2.37-1.89,2.46.28.28,4.52-5.9,9.03-12.73,8.25-20.59l.3-.42.69-.16c.89.88,5.9,4.95,6.94,4.3l-.31-10.14c.61-2.66,2.46-.96,3.37.57.79-1.17,3.19-3.35,4.2-1.75,1.36-.25,2.77-.56,4.23-.91,4.82-1.39,4.43,3.74,3.89,6.97-.63,3.79-2.48,7.59-5.58,9.97-2.53,1.45-2.78,1.6.13,2.46l.09.31c.85-.25,2.57.74,2.6,1.8.08,2.58-7.44,8.4-10.32,7.88l-.08.38c-.41-.26-.57-.2-.47.17.76.63,3.72,4.46,3.43,5.23-.24.65-7.59,1.84-8.95,1.96.05.43-.16.66-.55.83-18.57.06-37.16.03-55.74,0-.37-.28-.56-.28-.55,0-5.79,0-11.59.02-17.38,0-2.91-.76-5.85-1.42-8.82-1.99-.67-.83,2.53-4.79,3.3-5.48.09-.16-.09-.34-.55-.55-2.64.73-10.44-5.35-10.29-7.9.02-.41.14-.74.46-1.02l4.42-1.78c.08-.18.12-.43-.02-.59-1.85-.8-4.4-2.43-4.78-4.46-1.26-.9-2.01-3.4-2.47-5.03-.85-3.04-2.04-9.39,2.92-8.78l2.99.78.27-.52c-.58-.74-1.63-2.35-.95-3.03Z"/>
    <g>
      <path class="cls-7" d="M99.91,48.78c.17-.96,2.7-1.01,3.22-.31l.12,1.41c1.34-1.34,4.71-1,4.38,1.12l.72.06c2.36,4.19,1.83,9.56.23,13.82,1.11-.33,2.17-.53,3.19-.61.09-.02.19.02.28,0,.91,1.46,1.83,1.45,2.14,3.53.83,5.6-2.43,14.21-8.2,16.1l2.21.83c.59.19.61.38,0,.55l-4.14-1.38c4.14-.59,7.28-5.08,8.42-8.85.61-2.03,1.51-6.58.38-8.4-1.24-2.01-5.38.14-7.03.09-.26,0-.36-.25-.39-.26l.03-.7c3.38-1.18,2.9-13.77.42-14.43-1.64.08-3.24.75-4.82,2.01-1.01.54-1.88.52-1.48-.79,1.77-.7,2.52-1.79,2.25-3.26-1.42.52-2.06.34-1.93-.54Z"/>
      <path class="cls-28" d="M3.89,79.74c1.3,1.98,4.18,4.49,6.62,4.7l-5.94,2.47c-1.24,1.28,2.15,4.25,3.18,5.13,1.82,1.55,3.98,2.99,6.35,3.45-1.49,1.01-3.56-.95-4.86-1.1-.88-.11-1.71.39-2.59.28.81,1.31,4.17,2.13,1.38,3.46-.74.35-4.21,1-4.39,1.27-.59.85,1.98,3.16,2.18,4.12-1.38-.16-3.52-2.55-3.32-3.99.22-1.63,4.18-1.9,5.53-2.37-1.87-1.54-3.87-3.26,0-3.73-1.64-1.29-6.77-5.43-3.79-7.39l4.34-1.59c-1.81-.45-3.55-2.04-4.7-3.46-.2-.24-.19-.59-.27-.69l.28-.55Z"/>
      <g>
        <path class="cls-20" d="M14.65,96.05c-.49.83-3.43,4.66-3.03,5.24.25.37,7.61.93,8.55,2.22-.46,0-.92,0-1.38,0-1.26-.91-7.23-.89-7.88-1.93-.56-.9,2.08-3.98,2.74-4.74.3-.34.36-.85,1-.8Z"/>
        <path class="cls-3" d="M38.1,103.51c-.18,0-.37,0-.55,0-.25-.29-.88-2.48-.41-2.49l.97,2.49Z"/>
        <path class="cls-24" d="M84.11,69.56c4.62-.89.78,7.51-1.94,7.09-3.3-.51-.92-6.54,1.94-7.09Z"/>
        <path class="cls-24" d="M28.72,72.27l-.55.28c.35-6.12,7.5.43,5.53,3.75-1.67,2.81-5.8-1.96-4.99-4.03Z"/>
        <path class="cls-27" d="M88.05,67.85c1.08,1.51,2.14,3.98,2.48,5.81,1.43,7.61-3.63,15.69-8.55,21.01-.39.37-.53.21-.28-.28,5.96-6.98,12.02-19.23,4.97-27.37-.37-.39-.21-.53.28-.28.63-.52,1.58.4,1.1,1.11Z"/>
        <path class="cls-23" d="M26.79,68.96c-5.54,7.63.74,19.74,6.07,25.99.37.39.21.53-.28.28-5.74-6.2-11.39-15.78-7.45-24.33.34-.74.92-1.54,1.38-2.21.39-.37.53-.21.28.28Z"/>
        <path class="cls-28" d="M83.28,79.23c3.03-.61,1.2,5.55-.83,6.38-4.25,1.75-1.89-5.84.83-6.38Z"/>
        <path class="cls-28" d="M30.57,79.78c2.26-.63,5.09,5.34,3.4,6.47-2.63,1.76-6.02-5.74-3.4-6.47Z"/>
        <path class="cls-24" d="M74.44,77.59c2.98-.69,5.48,1.62,2.55,3.66-4.19,2.92-5.53-2.97-2.55-3.66Z"/>
        <path class="cls-24" d="M38.03,78.15c4.27-.89,4.59,3.82,2.36,4.31-2.99.65-6.1-3.53-2.36-4.31Z"/>
        <path class="cls-5" d="M94.39,102.69c2.86-.86,5.59-1.48,8.55-1.94.4-.58-2.54-4.42-3.03-5.24,1.04.52,2.2,2.13,2.82,3.12,1.13,1.8,1.85,2.41-.66,3.06-1.84.48-4.3.86-6.23,1.22-.43.08-1.18.26-1.45-.21Z"/>
        <path class="cls-29" d="M30.93,64.81c-.81.45-3.53,3.31-4.14,4.15l-.28-.28c.04-.06-.04-.22,0-.28-.1-.09-.19-.18-.24-.29-.13-.28,2.28-3.43,3-2.75-.43-.7.81-1.23,1.38-.83-.01.1.12.33.28.28Z"/>
        <path class="cls-17" d="M81.98,94.67c-1.36,1.47-2.86,3.6-4.97,3.87.11-.45.81-.47,1.24-.82.84-.68,2.76-2.52,3.45-3.32l.28.28Z"/>
        <path class="cls-17" d="M32.86,94.94c1.18,1.39,3.15,2.76,4.41,4.14-2-.53-3.35-2.43-4.69-3.87l.28-.28Z"/>
        <path class="cls-11" d="M65.14,93.29l4.69,1.93c-1.97.28-3.64-1.14-5.24-1.66l.55-.28Z"/>
        <path class="cls-10" d="M85.29,64.81c.84-.4,2.04,1.14,1.66,1.94l-.28.28c-.61-.71-2.26-2.18-3.04-2.76.16.06.29-.17.28-.28.53-.47,1.62.09,1.38.83Z"/>
        <path class="cls-9" d="M49.69,94.39l.28.28c-1.29.47-2.63,1.48-4.14,1.38l3.86-1.66Z"/>
        <path class="cls-19" d="M76.46,102.96l1.1-2.48c0,.79.02,2.46-1.1,2.48Z"/>
      </g>
    </g>
  </g>
  <g>
    <path class="cls-8" d="M21,40.21c-.03.11-.27.27-.28.55.35,1.16-.2,1.07-1.65-.28-2.73-1.53-4.13,6.8-3.86,8.58-.05.15.06.49,0,.55-.1.1-.42-.29-.55-.28l-2.76-.28v2.21c-.96-.18-1.52-1.1-2.61-1.11-1.18-.01-1.71.58-2.35,1.39-.15,0-.42.07-.51-.04s-.57-2.43-.59-2.73c-.9-12.58,2.81-25.2,8.92-36.07,5.31-9.46,7.63-1.8,8.14,5.17.43,5.83.22,13.25-.45,19.05-.21,1.82-.27,1.9-1.44,3.28Z"/>
    <path class="cls-8" d="M108.74,48.22c-.03.28-.52,2.61-.59,2.73-.06.1-.36.04-.51.04-.64-.82-1.17-1.41-2.35-1.39-1.09.01-1.65.94-2.61,1.11v-2.21s-2.76.28-2.76.28c-.09,0-.36.27-.54.27-.06-.17.03-.42-.01-.55.27-1.79-1.14-10.22-3.92-8.54-1.43,1.34-1.96,1.42-1.59.24-.01-.28-.24-.44-.28-.55-.26-.72-.61-1.08-1.06-1.06-.82-6.8-1.35-14.29-.83-21.27.52-6.97,2.83-14.64,8.14-5.17,6.11,10.88,9.82,23.49,8.92,36.07Z"/>
    <g>
      <path class="cls-18" d="M111.77,64.26c-.24.06-.19.44-.49.54-1.25.4-2.9.55-4.2,1.12,2.83-3.21,3.1-11.69.55-14.93.14-.75.32-1.65.5-2.5l.6-.26c.14-.14.21,0,.23.39.16-12.74-2.83-27.89-10.34-38.25-5.12-7.06-6.62,2.14-6.93,6.69-.47,6.91.05,13.84.6,20.73l1.27,1.86c.73-.28.81-.02.28.55-.19.4-.08.69.35.75,3.96-4.23,5.25,4.77,5.16,7.54.25-.02.53.03.55.28.06,0,.25.28.64.26.57-.03,1.2-.42,1.84-.26-.05,1.11.35,2.33-.68,3.05l-2.08,1.37c2.18-.08,4.92-3.98,7.05-1.95,2.41,2.29,2.24,12.3-.14,14.55-.32.3-.81.36-1.12.67-2.07-.28-3.1,1.2-4.28,2.76-.18.1-1.73-3.78-2.75-1.93l.41,11.05c-3.29.13-5.83-2.86-8.28-4.7l-.4-.13c-.45-1.88-1.11-3.72-2.2-5.33l.12-.34c.13-.78.62-1.57,1.5-2.36.39-1.01.9-1.69,1.54-2.06,3.09-5.98-.71-15.08-7.02-17.49-7.47-2.86-14.28,3.35-12.37,11.01,3,1.61,5.97,3.31,8.92,5.08l.27.58c-1.95,0-3.46,1.18-4.97,2.21-.71-.36-1.3-1.03-1.75-2-7.24-8.51-28.17-6.9-34.42,1.79-.39,1.01-.94,1.72-1.64,2.14-.24-2.87-4.45-2.91-6.62-2.21l.37-.92c3.45-2.34,7.08-4.2,10.89-5.6,2.61-7.24-3.67-13.67-11.02-11.87-8.48,2.08-11.59,13.08-7.41,20.05.72-.27,2.52,1.49,2.21,2.21.24.09.24.18,0,.28-.16.7-.78,1.85-1.38,2.21l-5.15,3.82c-1.36.68-2.64,1.62-4.23,1.71.08-3.73,1.64-7.66-.71-11.04-1.72-2.48-2.6-2.66-3.68.15-.41,1.08-.91-.46-1.4-.87-.71-.62-1.84-1.3-2.68-1.74-.48-.25-.72-.65-.64.23-.65-3.01-1.05-8.18.88-10.87,2.14-2.99,4.95,1.29,7.4,1.47l-2.08-1.37c-1.03-.73-.63-1.94-.68-3.05.72-.12,1.37.22,2.07.28.46.03.39-.27.42-.27l.55-.28c-.18-2.01.96-9.67,3.81-8.63,1.21,1.21,1.78,1.33,1.71.34-.62-.48-.49-.75.28-.55.3-.68.67-1.15,1.13-1.41.72-6.94,1.26-14.21.72-21.36-.34-4.52-1.83-13.55-6.92-6.52-7.44,10.27-10.41,25.2-10.26,37.79.01.85-.25.64-.02.15.02-.05.09-.07.18-.09l.59.2c.19.96.36,1.82.51,2.56-2.54,3.23-2.28,11.71.55,14.93-1.49-.29-2.82-1.15-4.37-1.15C-.38,50.9-.07,35.28,4.99,21.26c2.17-6.03,6.18-14.01,11.34-17.94,5.58-4.25,8.4.16,11.51,4.45,3.81,5.26,7.3,11.71,11.77,16.4.71.75,2.51,2.6,3.45,2.37,2.34-.57,3.82-3.75,5.24-5.42v4.42c2.35-2.73,5.46-4.79,8.69-6.36.57,1.41-1.01,2.74-.56,4.14,1.3-1.1,5.83-6.29,7.2-6.36,1.06-.06,2.71,2.63,3.37,3.51,1.19,1.57,2.73,3.39,3.09,5.34.52.06.22-.58.19-.89-.1-1.09-.34-2.15-.19-3.26l3.44,3.31c5.29-5.22,8.85-11.82,13.17-17.77,3.28-4.52,6.1-8.82,11.82-4.2,13.47,10.88,16.54,37.28,14.59,53.32-.32,2.66-1.03,5.26-1.34,7.91Z"/>
      <g>
        <path class="cls-28" d="M112.05,64.26c-.05.25-.14.24-.28,0l-.3-.58c3.19-17.78,2.18-43.25-10.35-57.42-6.46-7.31-9.64-5.39-14.33,1.8l-6.02,8.91c-2,3.17-4.38,5.99-7.12,8.45-1.11-.58-2.12-1.4-3.02-2.45l.3,2.71c-.24.69-.99.79-1.36.15-.18-1.42-4.92-8.23-5.92-8.3-2.42,1.81-4.68,3.86-6.8,6.14-1.22-.29-1.31-1.49-.29-3.58-2.68,1.26-5.18,3.03-7.25,5.18l-1,.29c-1.13-.67-.52-3.25,0-4.42-.28,1.99-3.56,6.32-5.67,5.96-1.88-.32-5.06-4.27-6.11-5.67-3.69-5.38-7.39-10.7-11.08-15.96-6.25-9.07-13.91,3.24-16.94,9.06C.53,29.84-.12,48.32,3.46,65.01c.71-.21,1.58-.06,2.62.46-1.83-4.29-2.18-9.71.12-13.88l.72-.06c-.32-2.12,3.04-2.46,4.38-1.12-.48-2.32,2.37-2.36,3.34-1.09.56.8-.09,1-1.94.6-1,1.22,1.59,2.88,2.44,3.36.09.98-.73,1.12-1.52.68l-3.08-1.8c-4.69-1.76-4.05,7.48-3.5,10.23-.45.12-.52.37-.41.76.2.93.31,1.75.87,2.58l1.61,1.57c-3.05-.25-7.54-2.9-7.97,1.83-.26,2.8,1.17,8.24,2.73,10.61.25.57.16.75-.28.55-2.27-3.08-4.45-9.59-2.9-13.27.43-1.01,1.76-1.5,1.78-2.05.03-.85-1.02-3.9-1.24-5.13C-1.82,42.7.41,20.6,11.62,6.62,13.99,3.67,18.26-.57,22.37.82c5.05,1.71,11.4,14.36,14.68,19.02.89,1.26,4.03,5.61,5.2,6.14,1.09.49,2.91-1.45,3.57-2.23.46-.54,2.15-3.4,2.36-3.45.5-.13.63.44.69.83-.14.91-.32,2.54,0,3.04.92-.78,1.78-1.83,2.78-2.6.8-.62,5.32-3.64,6.05-2.93l-.14,2.76c1.35-1.19,4.81-5.36,6.6-5.25s4.58,4.98,5.13,6.63c.65-.25-.17-2,.92-1.9,1.18.11,2.21,2.79,3.34,3.27,1.59-.36,10.78-15.84,12.62-18.32,3.25-4.38,6.17-7.89,11.79-4.45s10.43,12.91,12.65,19.12c4.94,13.85,5.32,29.59,1.45,43.75Z"/>
        <path class="cls-13" d="M48.86,24.17s.03.32-.27.28c.14-1.03-.34-2.43.27-3.32.13.93-.09,2.08,0,3.04Z"/>
        <path class="cls-14" d="M5.82,48.78l-.28.69c-.44-11.74,1.97-24.31,7.68-34.6,3.9-7.03,7.76-10.98,9.62.13.6,3.6.68,7.33.63,10.97l-1.1,13.69-.55-.55-.83,1.1c.28-.99.91-1.38,1.05-1.85.47-1.6.25-5.05.34-6.85.29-5.9.7-12.02-.37-17.89-1.68-9.28-5.24-4.14-8.06.87-4.96,8.81-9.06,24.21-8.13,34.29Z"/>
        <path class="cls-14" d="M93.56,39.65l-.83-1.1-.55.55c-.6-8.18-1.84-16.49-.47-24.66,1.86-11.11,5.73-7.16,9.62-.13,5.7,10.29,8.12,22.88,7.68,34.6l-.28-.69c.93-10.08-3.18-25.48-8.13-34.29-2.82-5.01-6.38-10.15-8.06-.87-1.06,5.87-.66,11.99-.37,17.89.09,1.8-.14,5.25.34,6.85.14.47.77.87,1.05,1.85Z"/>
        <path class="cls-28" d="M85.84,39.37l-4.27-4.7c-1.92-1.93-5.46-2.33-7.73-.82-.36-.6.73-1.68,1.26-2.05,4.73-3.32,10.54,2.84,10.74,7.58Z"/>
        <path class="cls-28" d="M40.86,34.4c-2.38-1.43-5.84-1.19-7.87.82l-4.27,4.7c.31-4.42,4.92-9.91,9.65-8.15,1.1.41,2.34,1.36,2.49,2.62Z"/>
        <path class="cls-26" d="M99.36,48.5c-.82-2.42-.23-5.36-2.25-7.84-1.57-1.93-2.83,1.38-3.54.65-.34-.35.28-1.05.27-1.1-.09.78.18.69.69.28.78-.61,1.02-1.58,2.34-.97,1.44.66,3.51,7.32,2.49,8.98Z"/>
        <path class="cls-26" d="M15.2,49.05c-1.03-1.66,1.05-8.32,2.49-8.98,1.32-.61,1.56.36,2.34.97.52.41.78.5.69-.28,0,.06.62.75.27,1.1-.72.73-1.98-2.58-3.54-.65-2.02,2.49-1.43,5.43-2.25,7.84Z"/>
      </g>
    </g>
  </g>
</svg>